Coordinates
version=1
nRows=7
nColumns=46
inDegrees=yes

Units are S.I. units (second, meters, Newtons, ...)
Angles are in degrees.

endheader
time	pelvis_tilt	pelvis_list	pelvis_rotation	pelvis_tx	pelvis_ty	pelvis_tz	bb_angle	bb_tx	bb_ty	bb_tz	hip_flexion_r	hip_adduction_r	hip_rotation_r	knee_angle_r	knee_angle_r_beta	ankle_angle_r	subtalar_angle_r	mtp_angle_r	crank_angle_r	hip_flexion_l	hip_adduction_l	hip_rotation_l	knee_angle_l	knee_angle_l_beta	ankle_angle_l	subtalar_angle_l	mtp_angle_l	crank_angle_l	lumbar_extension	lumbar_bending	lumbar_rotation	arm_flex_r	arm_add_r	arm_rot_r	elbow_flex_r	pro_sup_r	wrist_flex_r	wrist_dev_r	arm_flex_l	arm_add_l	arm_rot_l	elbow_flex_l	pro_sup_l	wrist_flex_l	wrist_dev_l
      7.50500000	    -15.36662633	     -7.93220540	     -5.10894108	      0.21644568	      1.04698259	     -0.25958868	      0.00000000	      0.50000000	      0.00000000	      0.25000000	     81.46846893	      5.78224024	      5.13405328	    117.00563153	      2.04213351	     -6.13857444	     -1.80491019	      0.00000000	      0.00000000	     42.02738432	    -14.39999423	     -3.17539019	     35.97235046	      0.62783596	    -11.50830102	     -1.61604166	      0.00000000	      0.00000000	    -61.34412509	      7.11822321	      3.85168583	     88.87892059	     -6.83771641	     36.88969145	     47.19666603	     45.50071893	      0.00000000	      0.00000000	     84.21337237	    -40.39529274	     48.57336424	     67.36191523	     41.56466931	      0.00000000	      0.00000000
      7.51000000	    -15.63596448	     -7.85601662	     -5.32968079	      0.21658206	      1.04745675	     -0.25904165	      0.00000000	      0.50000000	      0.00000000	      0.25000000	     82.80148509	      6.05344514	      5.30351707	    117.25688208	      2.04651866	     -5.26276238	     -1.87455171	      0.00000000	      0.00000000	     41.41539816	    -14.60528764	     -3.84651421	     35.51930793	      0.61992887	    -12.33583185	     -1.24888889	      0.00000000	      0.00000000	    -61.19774879	      7.41091060	      4.12155958	     89.04464633	     -6.79610827	     36.91776990	     47.31377808	     45.49389668	      0.00000000	      0.00000000	     83.95279434	    -40.45346004	     48.59224672	     67.20979716	     41.57010940	      0.00000000	      0.00000000
      7.51500000	    -15.85973834	     -7.50158258	     -5.75041834	      0.21670372	      1.04816251	     -0.25807608	      0.00000000	      0.50000000	      0.00000000	      0.25000000	     84.02856483	      6.45510747	      5.84133116	    117.41203091	      2.04922652	     -4.03326433	     -1.02906676	      0.00000000	      0.00000000	     40.68571146	    -14.72845010	     -4.93745999	     35.11725058	      0.61291165	    -13.33179493	     -1.01548856	      0.00000000	      0.00000000	    -60.94354900	      7.25708220	      4.17772523	     89.10777043	     -6.99012467	     37.48450877	     47.41073731	     45.34305931	      0.00000000	      0.00000000	     83.27127229	    -39.99930974	     47.72335642	     66.64508985	     41.61304058	      0.00000000	      0.00000000
      7.52000000	    -16.15708532	     -7.36631002	     -5.95234432	      0.21670196	      1.04874924	     -0.25732519	      0.00000000	      0.50000000	      0.00000000	      0.25000000	     85.24110886	      6.68662493	      5.95604537	    117.36684559	      2.04843789	     -3.15415674	     -1.10531863	      0.00000000	      0.00000000	     40.24466083	    -14.87881970	     -5.56656447	     34.97434849	      0.61041753	    -14.11373762	     -0.75338417	      0.00000000	      0.00000000	    -60.72645295	      7.41748687	      4.37551551	     89.20329838	     -6.91663063	     37.57773202	     47.53062577	     45.31525200	      0.00000000	      0.00000000	     82.93327629	    -39.91782473	     47.61506702	     66.45658332	     41.61588677	      0.00000000	      0.00000000
      7.52500000	    -16.42867303	     -7.14214325	     -6.19911240	      0.21666056	      1.04940229	     -0.25642594	      0.00000000	      0.50000000	      0.00000000	      0.25000000	     86.32418347	      6.95288680	      6.19573431	    117.19818679	      2.04549424	     -2.12109928	     -0.84636187	      0.00000000	      0.00000000	     39.84319248	    -15.01178389	     -6.40664304	     35.04555831	      0.61166038	    -14.65253260	     -0.61765789	      0.00000000	      0.00000000	    -60.51670735	      7.38368556	      4.44647458	     89.24607647	     -6.97280924	     37.78816367	     47.59200518	     45.24502576	      0.00000000	      0.00000000	     82.58694182	    -39.71070723	     47.23762747	     66.20242648	     41.61190836	      0.00000000	      0.00000000
      7.53000000	    -16.68010299	     -6.91127560	     -6.29323209	      0.21659501	      1.05013944	     -0.25563222	      0.00000000	      0.50000000	      0.00000000	      0.25000000	     87.26755662	      7.04022178	      6.30415048	    116.87038447	      2.03977301	     -1.09737771	     -0.98755607	      0.00000000	      0.00000000	     39.51052962	    -15.01285763	     -6.97530164	     35.25446755	      0.61530653	    -15.00366702	     -0.50215413	      0.00000000	      0.00000000	    -60.34381414	      7.52213101	      4.50660683	     89.34332621	     -6.95223348	     37.88591552	     47.67700360	     45.21970051	      0.00000000	      0.00000000	     82.38766596	    -39.58404620	     47.06592392	     66.08772372	     41.60812335	      0.00000000	      0.00000000
      7.53500000	    -16.72888780	     -6.74268780	     -6.25726243	      0.21633716	      1.05123600	     -0.25512714	      0.00000000	      0.50000000	      0.00000000	      0.25000000	     87.88276002	      7.03249298	      6.36910760	    116.29950763	      2.02980933	     -0.65634642	     -1.06860339	      0.00000000	      0.00000000	     39.04836117	    -14.91565694	     -7.21082855	     35.56409202	      0.62071050	    -15.11387337	     -0.47267131	      0.00000000	      0.00000000	    -60.36167364	      7.72000582	      4.50476402	     89.34830733	     -6.97007038	     37.90399236	     47.69579255	     45.21157603	      0.00000000	      0.00000000	     82.33193188	    -39.53738252	     47.02336452	     66.05187722	     41.60560373	      0.00000000	      0.00000000
